<?xml version="1.0"?>
<svg xmlns="http://www.w3.org/2000/svg" xmlns:xlink="http://www.w3.org/1999/xlink" version="1.1" id="Capa_1" x="0px" y="0px" viewBox="0 0 512 512" style="enable-background:new 0 0 512 512;" xml:space="preserve" width="512px" height="512px" class=""><g transform="matrix(1 -2.44929e-16 2.44929e-16 1 -1.13687e-13 0)"><polygon style="fill:#FDD314" points="512,43.935 512,468.065 360.62,468.065 360.62,266.815 256.14,371.285 256.12,371.265   256,371.385 245.37,360.805 151.38,266.815 151.38,468.065 0,468.065 0,43.935 142.6,43.935 256,157.335 369.4,43.935 " data-original="#AEADB3" class="active-path" data-old_color="#FCDE73"/><polygon style="fill:#FFC107" points="512,43.935 512,468.065 360.62,468.065 360.62,266.815 256.14,371.285 256.12,371.265   256,371.385 256,157.335 369.4,43.935 " data-original="#78777F" class="" data-old_color="#ffc107"/></g> </svg>
